<?xml version="1.0" standalone="no"?>
<!DOCTYPE svg PUBLIC "-//W3C//DTD SVG 20010904//EN"
 "http://www.w3.org/TR/2001/REC-SVG-20010904/DTD/svg10.dtd">
<svg version="1.0" xmlns="http://www.w3.org/2000/svg"
 width="120.000000pt" height="70.000000pt" viewBox="0 0 120.000000 70.000000"
 preserveAspectRatio="xMidYMid meet">

<g transform="translate(0.000000,70.000000) scale(0.100000,-0.100000)"
fill="#000000" stroke="none">
<path d="M7 554 c-4 -4 -7 -94 -7 -199 l0 -193 46 10 c35 8 61 6 108 -6 63
-15 127 -9 141 14 13 21 -7 28 -37 13 -28 -15 -37 -15 -98 0 -37 9 -76 13 -88
10 -21 -5 -22 -3 -24 173 -3 152 -5 179 -18 182 -9 1 -19 0 -23 -4z"/>
<path d="M120 552 c0 -5 12 -41 27 -78 17 -43 29 -98 32 -144 5 -61 9 -75 24
-78 15 -3 17 5 17 65 0 52 7 86 30 143 46 118 36 142 -13 26 l-24 -59 -25 64
c-18 49 -29 65 -46 67 -12 2 -22 -1 -22 -6z"/>
<path d="M310 360 l0 -190 25 0 c23 0 25 3 25 50 0 47 2 50 25 50 17 0 37 -14
62 -41 63 -69 136 -95 223 -79 53 10 103 37 95 50 -3 5 -21 2 -40 -6 -78 -32
-172 -11 -232 52 l-34 37 20 21 c60 64 53 171 -15 225 -21 16 -41 21 -90 21
l-64 0 0 -190z m134 147 c30 -30 41 -92 26 -146 -12 -46 -41 -71 -82 -71 l-28
0 0 120 0 120 30 0 c19 0 40 -9 54 -23z"/>
<path d="M818 523 c-14 -16 -28 -40 -32 -55 -9 -40 17 -95 55 -116 79 -43 109
-71 109 -102 0 -35 -31 -70 -60 -70 -25 0 -70 42 -70 65 0 20 -24 14 -28 -7
-2 -8 9 -29 23 -47 23 -26 34 -31 72 -31 36 0 50 6 74 29 57 58 28 139 -69
196 -29 17 -57 38 -63 46 -24 38 8 99 52 99 12 0 34 -13 49 -30 28 -30 50 -39
50 -19 0 6 -13 24 -29 40 -40 40 -96 41 -133 2z"/>
<path d="M1010 360 l0 -190 90 0 c73 0 90 3 90 15 0 12 -14 15 -70 15 l-70 0
0 85 0 84 67 3 c42 2 68 8 71 16 3 9 -15 12 -67 12 l-71 0 0 60 0 59 67 3 c42
2 68 8 71 16 3 9 -19 12 -87 12 l-91 0 0 -190z"/>
<path d="M623 525 c-11 -8 -14 -21 -11 -39 4 -22 1 -29 -17 -36 -35 -13 -40
-44 -15 -94 24 -50 48 -61 82 -38 21 15 22 15 10 -1 -15 -18 -8 -37 13 -37 20
0 27 31 10 50 -8 9 -15 25 -14 36 0 18 1 18 9 -1 4 -12 16 -27 25 -35 15 -13
20 -11 42 14 19 22 23 36 18 55 -3 14 -7 45 -8 68 -1 23 -7 47 -13 53 -15 15
-112 19 -131 5z m37 -75 c0 -5 -4 -10 -10 -10 -5 0 -10 5 -10 10 0 6 5 10 10
10 6 0 10 -4 10 -10z m40 0 c0 -5 -4 -10 -10 -10 -5 0 -10 5 -10 10 0 6 5 10
10 10 6 0 10 -4 10 -10z"/>
</g>
</svg>
